<svg width="24" height="24" viewBox="0 0 24 24" fill="none" xmlns="http://www.w3.org/2000/svg">
<path fill-rule="evenodd" clip-rule="evenodd" d="M12 1C11.2406 1 10.625 1.61561 10.625 2.375V10.625H2.375C1.61561 10.625 1 11.2406 1 12C1 12.7594 1.61561 13.375 2.375 13.375H10.625V21.625C10.625 22.3844 11.2406 23 12 23C12.7594 23 13.375 22.3844 13.375 21.625V13.375H21.625C22.3844 13.375 23 12.7594 23 12C23 11.2406 22.3844 10.625 21.625 10.625H13.375V2.375C13.375 1.61561 12.7594 1 12 1Z" fill="#3A3A3A"/>
<path d="M10.625 10.625V11.125H11.125V10.625H10.625ZM10.625 13.375H11.125V12.875H10.625V13.375ZM13.375 13.375V12.875H12.875V13.375H13.375ZM13.375 10.625H12.875V11.125H13.375V10.625ZM11.125 2.375C11.125 1.89175 11.5168 1.5 12 1.5V0.5C10.9645 0.5 10.125 1.33947 10.125 2.375H11.125ZM11.125 10.625V2.375H10.125V10.625H11.125ZM2.375 11.125H10.625V10.125H2.375V11.125ZM1.5 12C1.5 11.5168 1.89175 11.125 2.375 11.125V10.125C1.33947 10.125 0.5 10.9645 0.5 12H1.5ZM2.375 12.875C1.89175 12.875 1.5 12.4832 1.5 12H0.5C0.5 13.0355 1.33947 13.875 2.375 13.875V12.875ZM10.625 12.875H2.375V13.875H10.625V12.875ZM11.125 21.625V13.375H10.125V21.625H11.125ZM12 22.5C11.5168 22.5 11.125 22.1082 11.125 21.625H10.125C10.125 22.6605 10.9645 23.5 12 23.5V22.5ZM12.875 21.625C12.875 22.1082 12.4832 22.5 12 22.5V23.5C13.0355 23.5 13.875 22.6605 13.875 21.625H12.875ZM12.875 13.375V21.625H13.875V13.375H12.875ZM21.625 12.875H13.375V13.875H21.625V12.875ZM22.5 12C22.5 12.4832 22.1082 12.875 21.625 12.875V13.875C22.6605 13.875 23.5 13.0355 23.5 12H22.5ZM21.625 11.125C22.1082 11.125 22.5 11.5168 22.5 12H23.5C23.5 10.9645 22.6605 10.125 21.625 10.125V11.125ZM13.375 11.125H21.625V10.125H13.375V11.125ZM12.875 2.375V10.625H13.875V2.375H12.875ZM12 1.5C12.4832 1.5 12.875 1.89175 12.875 2.375H13.875C13.875 1.33947 13.0355 0.5 12 0.5V1.5Z" fill="white"/>
</svg>
