<svg width="22" height="22" viewBox="0 0 22 22" fill="none" xmlns="http://www.w3.org/2000/svg">
<path fill-rule="evenodd" clip-rule="evenodd" d="M10.6388 15.6893C10.8612 15.5551 11.1397 15.5551 11.3622 15.6893L14.8238 17.7786C15.3539 18.0986 16.0079 17.6233 15.8672 17.0203L14.9486 13.0825C14.8896 12.8294 14.9755 12.5645 15.1719 12.3944L18.2313 9.744C18.6994 9.33855 18.4492 8.56977 17.8322 8.51743L13.8053 8.17579C13.5466 8.15384 13.3213 7.9905 13.22 7.75145L11.645 4.03531C11.4038 3.46619 10.5972 3.46619 10.356 4.03531L8.78095 7.75145C8.67964 7.9905 8.45433 8.15384 8.19563 8.17579L4.16876 8.51743C3.55177 8.56977 3.30158 9.33855 3.7696 9.744L6.82901 12.3944C7.0254 12.5645 7.1114 12.8294 7.05236 13.0825L6.13373 17.0203C5.99305 17.6233 6.64702 18.0986 7.17714 17.7786L10.6388 15.6893Z" stroke="url(#paint0_linear)" stroke-width="1.4"/>
<defs>
<linearGradient id="paint0_linear" x1="10.9995" y1="18.6359" x2="10.9995" y2="2.51526" gradientUnits="userSpaceOnUse">
<stop stop-color="#FFBB00"/>
<stop offset="1" stop-color="#FFCD00"/>
</linearGradient>
</defs>
</svg>
