<svg width="32" height="32" viewBox="0 0 32 32" fill="none" xmlns="http://www.w3.org/2000/svg">
    <path fill-rule="evenodd" clip-rule="evenodd"
        d="M8 21C7.44772 21 7 21.4477 7 22C7 22.5523 7.44772 23 8 23H12C12.5523 23 13 22.5523 13 22C13 21.4477 12.5523 21 12 21H8ZM8 9C7.44772 9 7 9.44772 7 10C7 10.5523 7.44772 11 8 11H16C16.5523 11 17 10.5523 17 10C17 9.44772 16.5523 9 16 9H8ZM16 25C16.5523 25 17 24.5523 17 24V23H24C24.5523 23 25 22.5523 25 22C25 21.4477 24.5523 21 24 21H17V20C17 19.4477 16.5523 19 16 19C15.4477 19 15 19.4477 15 20V24C15 24.5523 15.4477 25 16 25ZM12 13C11.4477 13 11 13.4477 11 14V15H8C7.44772 15 7 15.4477 7 16C7 16.5523 7.44772 17 8 17H11V18C11 18.5523 11.4477 19 12 19C12.5523 19 13 18.5523 13 18V14C13 13.4477 12.5523 13 12 13ZM24 17C24.5523 17 25 16.5523 25 16C25 15.4477 24.5523 15 24 15H16C15.4477 15 15 15.4477 15 16C15 16.5523 15.4477 17 16 17H24ZM19 12C19 12.5523 19.4477 13 20 13C20.5523 13 21 12.5523 21 12V11H24C24.5523 11 25 10.5523 25 10C25 9.44772 24.5523 9 24 9H21V8C21 7.44772 20.5523 7 20 7C19.4477 7 19 7.44772 19 8V12Z"
        fill="#A0ACC4" />
</svg>
