<svg width="32" height="32" viewBox="0 0 32 32" fill="none" xmlns="http://www.w3.org/2000/svg">
<path d="M28.2377 7.95109H14.3275V6.37899C14.3275 6.27848 14.2875 6.18208 14.2165 6.11101C14.1454 6.03994 14.049 6 13.9485 6H5.98276C5.88225 6 5.78585 6.03994 5.71478 6.11101C5.6437 6.18208 5.60377 6.27848 5.60377 6.37899V7.95109H3.37898C3.27847 7.95109 3.18207 7.99101 3.111 8.06209C3.03993 8.13316 3 8.22955 3 8.33007V25.4827C3 25.5832 3.03993 25.6796 3.111 25.7507C3.18207 25.8218 3.27847 25.8617 3.37898 25.8617H28.2377C28.2874 25.8617 28.3367 25.8519 28.3827 25.8328C28.4287 25.8138 28.4705 25.7859 28.5056 25.7507C28.5408 25.7155 28.5688 25.6737 28.5878 25.6277C28.6069 25.5817 28.6166 25.5325 28.6166 25.4827V8.33007C28.6166 8.2803 28.6069 8.23102 28.5878 8.18504C28.5688 8.13905 28.5408 8.09728 28.5056 8.06209C28.4705 8.02689 28.4287 7.99897 28.3827 7.97993C28.3367 7.96088 28.2874 7.95109 28.2377 7.95109V7.95109Z" stroke="#1F2677" stroke-width="1.02034" stroke-miterlimit="10"/>
<path d="M17.5129 17.5381H5.47656V23.6229H17.5129V17.5381Z" fill="#FFD56E"/>
</svg>
